<?xml version="1.0" encoding="UTF-8"?>
<svg id="Layer_2" data-name="Layer 2" xmlns="http://www.w3.org/2000/svg" viewBox="0 0 25 25">
  <defs>
    <style>
      .cls-1 {
        fill: #0274e6;
      }
    </style>
  </defs>
  <g id="Layer_1-2" data-name="Layer 1">
    <g id="RSS_widget">
      <path class="cls-1" d="M1,21V3C1,1.9,1.9,1,3,1H21c1.1,0,2,.9,2,2V14h1V3c0-.2-.02-1.26-.88-2.12-.54-.54-1.29-.88-2.12-.88H3C1.34,0,0,1.34,0,3V21c0,1.66,1.34,3,3,3H14v-1H3c-1.1,0-2-.9-2-2Z"/>
      <path class="cls-1" d="M21.72,18.99l.76-.76-.71-.71-.76,.76c-.16-.09-.33-.17-.51-.21v-1.07h-1v1.07c-.18,.05-.35,.12-.51,.21l-.76-.76-.71,.71,.76,.76c-.09,.16-.17,.33-.21,.51h-1.07v1h1.07c.05,.18,.12,.35,.21,.51l-.76,.76,.71,.71,.76-.76c.16,.09,.33,.17,.51,.21v1.07h1v-1.07c.18-.05,.35-.12,.51-.21l.76,.76,.71-.71-.76-.76c.09-.16,.17-.33,.21-.51h1.07v-1h-1.07c-.05-.18-.12-.35-.21-.51Zm-1.72,2.01c-.55,0-1-.45-1-1s.45-1,1-1,1,.45,1,1-.45,1-1,1Z"/>
      <g>
        <path class="cls-1" d="M6,15c-1.66,0-3,1.34-3,3s1.34,3,3,3,3-1.34,3-3-1.34-3-3-3Zm0,5c-1.1,0-2-.9-2-2s.9-2,2-2,2,.9,2,2-.9,2-2,2Z"/>
        <path class="cls-1" d="M4,8c-.33,0-.67,0-1,0v4h1c.54,0,3.36,.06,5.64,2.33,2.3,2.29,2.36,5.13,2.36,5.67v1h2v-1c-.33,0-.67,0-1,0,0-4.97-4.03-9-9-9v-2c1,.02,3.42,.19,5.89,1.79,2.52,1.62,3.68,3.8,4.11,4.71,.04-.16,.11-.37,.23-.59,.09-.17,.18-.3,.27-.41-.51-.99-1.67-2.89-3.9-4.42-2.74-1.87-5.49-2.06-6.6-2.08Z"/>
        <path class="cls-1" d="M4.01,3h.09c7.54,0,13.6,5.48,15.82,11h1.08C18.67,7.76,12.09,2,4.09,2c-.03,0-.06,0-.09,0h-1v4c.33,0,.67,0,1,0,0,0,.01,0,.02,0h.24c7.01,0,11.61,5.81,12.66,8h1.09c-.89-2.41-6.01-9-13.75-9-.08,0-.17,0-.25,0v-2s0,0,0,0Z"/>
      </g>
      <path class="cls-1" d="M23,15h-6c-1.1,0-2,.9-2,2v6c0,1.1,.9,2,2,2h6c1.1,0,2-.9,2-2v-6c0-1.1-.9-2-2-2Zm1,8c0,.55-.45,1-1,1h-6c-.55,0-1-.45-1-1v-6c0-.55,.45-1,1-1h6c.55,0,1,.45,1,1v6Z"/>
    </g>
  </g>
</svg>