<?xml version="1.0" encoding="UTF-8"?>
<svg id="Layer_2" data-name="Layer 2" xmlns="http://www.w3.org/2000/svg" viewBox="0 0 25 25">
  <defs>
    <style>
      .cls-1 {
        fill: #0274e6;
      }
    </style>
  </defs>
  <g id="Layer_1-2" data-name="Layer 1">
    <g id="Search_widget">
      <path class="cls-1" d="M6,11.5c0-3.58,2.92-6.5,6.5-6.5s6.5,2.92,6.5,6.5c0,.89-.18,1.73-.5,2.5h1.07c.28-.78,.44-1.62,.44-2.5,0-4.14-3.36-7.5-7.5-7.5s-7.5,3.36-7.5,7.5c0,1.89,.71,3.61,1.86,4.93l-2.86,2.86,.71,.71,2.86-2.86c1.32,1.15,3.04,1.86,4.93,1.86,.51,0,1.02-.05,1.5-.15v-1.03c-.48,.11-.98,.18-1.5,.18-3.58,0-6.5-2.92-6.5-6.5Z"/>
      <path class="cls-1" d="M12.25,6.25v1c2.48,0,4.5,2.02,4.5,4.5h1c0-3.04-2.46-5.5-5.5-5.5Z"/>
      <path class="cls-1" d="M23,15h-6c-1.1,0-2,.9-2,2v6c0,1.1,.9,2,2,2h6c1.1,0,2-.9,2-2v-6c0-1.1-.9-2-2-2Zm1,8c0,.55-.45,1-1,1h-6c-.55,0-1-.45-1-1v-6c0-.55,.45-1,1-1h6c.55,0,1,.45,1,1v6Z"/>
      <path class="cls-1" d="M21.72,18.99l.76-.76-.71-.71-.76,.76c-.16-.09-.33-.17-.51-.21v-1.07h-1v1.07c-.18,.05-.35,.12-.51,.21l-.76-.76-.71,.71,.76,.76c-.09,.16-.17,.33-.21,.51h-1.07v1h1.07c.05,.18,.12,.35,.21,.51l-.76,.76,.71,.71,.76-.76c.16,.09,.33,.17,.51,.21v1.07h1v-1.07c.18-.05,.35-.12,.51-.21l.76,.76,.71-.71-.76-.76c.09-.16,.17-.33,.21-.51h1.07v-1h-1.07c-.05-.18-.12-.35-.21-.51Zm-1.72,2.01c-.55,0-1-.45-1-1s.45-1,1-1,1,.45,1,1-.45,1-1,1Z"/>
      <path class="cls-1" d="M1,21V3C1,1.9,1.9,1,3,1H21c1.1,0,2,.9,2,2V14h1V3c0-1.66-1.34-3-3-3H3C1.34,0,0,1.34,0,3V21c0,1.66,1.34,3,3,3H14v-1H3c-1.1,0-2-.9-2-2Z"/>
    </g>
  </g>
</svg>