<?xml version="1.0" encoding="UTF-8"?>
<svg id="Layer_2" data-name="Layer 2" xmlns="http://www.w3.org/2000/svg" viewBox="0 0 25 23.5">
  <defs>
    <style>
      .cls-1 {
        fill: #0274e6;
      }
    </style>
  </defs>
  <g id="Layer_1-2" data-name="Layer 1">
    <g id="Tag_cloud_widget">
      <path class="cls-1" d="M24.12,13.84c-.32-.22-.7-.34-1.12-.34h-6c-.41,0-.8,.13-1.12,.34-.21,.14-.4,.33-.54,.54-.22,.32-.34,.7-.34,1.12v6c0,1.1,.9,2,2,2h6c1.1,0,2-.9,2-2v-6c0-.41-.13-.8-.34-1.12-.14-.21-.33-.4-.54-.54Zm-.12,7.66c0,.55-.45,1-1,1h-6c-.55,0-1-.45-1-1v-6c0-.55,.45-1,1-1h6c.55,0,1,.45,1,1v6Z"/>
      <path class="cls-1" d="M23,19v-1h-1.07c-.05-.18-.12-.35-.21-.51l.76-.76-.71-.71-.76,.76c-.16-.09-.33-.17-.51-.21v-1.07h-1v1.07c-.18,.05-.35,.12-.51,.21l-.76-.76-.71,.71,.76,.76c-.09,.16-.17,.33-.21,.51h-1.07v1h1.07c.05,.18,.12,.35,.21,.51l-.76,.76,.71,.71,.76-.76c.16,.09,.33,.17,.51,.21v1.07h1v-1.07c.18-.05,.35-.12,.51-.21l.76,.76,.71-.71-.76-.76c.09-.16,.17-.33,.21-.51h1.07Zm-2-.5c0,.55-.45,1-1,1s-1-.45-1-1,.45-1,1-1,1,.45,1,1Z"/>
      <g>
        <path class="cls-1" d="M24,9.74c-.12-2.46-.23-4.93-.35-7.39-1.64-.08-3.28-.16-4.92-.23-.03-.59-.06-1.18-.08-1.77-2.46-.12-4.93-.23-7.39-.35L0,11.26c2.58,2.58,5.16,5.16,7.74,7.74l1.5-1.5c1.17,1.17,2.33,2.33,3.5,3.5l1.26-1.26v-1.41l-1.26,1.26-2.79-2.79L19,7.74c-.07-1.54-.15-3.08-.22-4.62l1.13,.05,2.79,.13,.13,2.79,.15,3.25-3.15,3.15h1.41l2.76-2.76Zm-11.34,2.92l-4.92,4.92L3.52,13.37l-2.11-2.11L11.65,1.02l3.25,.15,2.79,.13,.13,2.79,.15,3.25-5.32,5.32Z"/>
        <path class="cls-1" d="M15,2.5c-.83,0-1.5,.67-1.5,1.5s.67,1.5,1.5,1.5,1.5-.67,1.5-1.5-.67-1.5-1.5-1.5Zm0,2c-.28,0-.5-.22-.5-.5s.22-.5,.5-.5,.5,.22,.5,.5-.22,.5-.5,.5Z"/>
      </g>
    </g>
  </g>
</svg>